<svg width="144" height="61" viewBox="0 0 144 61" fill="none" xmlns="http://www.w3.org/2000/svg">
<g filter="url(#filter0_i)">
<g filter="url(#filter1_d)">
<g filter="url(#filter2_d)">
<rect x="11" y="7" width="122" height="39" rx="14" fill="#FDFF83"/>
</g>
</g>
<g filter="url(#filter3_i)">
<path d="M60.0076 36.24C58.2956 36.24 56.7516 35.872 55.3756 35.136C53.9996 34.384 52.9196 33.352 52.1356 32.04C51.3516 30.712 50.9596 29.232 50.9596 27.6C50.9596 25.968 51.3516 24.496 52.1356 23.184C52.9196 21.856 53.9996 20.824 55.3756 20.088C56.7516 19.336 58.2956 18.96 60.0076 18.96C61.7196 18.96 63.2636 19.336 64.6396 20.088C66.0156 20.824 67.0956 21.848 67.8796 23.16C68.6636 24.472 69.0556 25.952 69.0556 27.6C69.0556 29.248 68.6636 30.728 67.8796 32.04C67.0956 33.352 66.0156 34.384 64.6396 35.136C63.2636 35.872 61.7196 36.24 60.0076 36.24ZM60.0076 33.504C61.1276 33.504 62.1356 33.256 63.0316 32.76C63.9276 32.248 64.6316 31.544 65.1436 30.648C65.6556 29.736 65.9116 28.72 65.9116 27.6C65.9116 26.48 65.6556 25.472 65.1436 24.576C64.6316 23.664 63.9276 22.96 63.0316 22.464C62.1356 21.952 61.1276 21.696 60.0076 21.696C58.8876 21.696 57.8796 21.952 56.9836 22.464C56.0876 22.96 55.3836 23.664 54.8716 24.576C54.3596 25.472 54.1036 26.48 54.1036 27.6C54.1036 28.72 54.3596 29.736 54.8716 30.648C55.3836 31.544 56.0876 32.248 56.9836 32.76C57.8796 33.256 58.8876 33.504 60.0076 33.504ZM92.5707 19.2V36H90.0027L80.7387 24.624V36H77.6427V19.2H80.2107L89.4747 30.576V19.2H92.5707Z" fill="white"/>
</g>
</g>
<defs>
<filter id="filter0_i" x="11" y="7" width="122" height="43" filterUnits="userSpaceOnUse" color-interpolation-filters="sRGB">
<feFlood flood-opacity="0" result="BackgroundImageFix"/>
<feBlend mode="normal" in="SourceGraphic" in2="BackgroundImageFix" result="shape"/>
<feColorMatrix in="SourceAlpha" type="matrix" values="0 0 0 0 0 0 0 0 0 0 0 0 0 0 0 0 0 0 127 0" result="hardAlpha"/>
<feOffset dy="4"/>
<feGaussianBlur stdDeviation="2"/>
<feComposite in2="hardAlpha" operator="arithmetic" k2="-1" k3="1"/>
<feColorMatrix type="matrix" values="0 0 0 0 0 0 0 0 0 0 0 0 0 0 0 0 0 0 1 0"/>
<feBlend mode="normal" in2="shape" result="effect1_innerShadow"/>
</filter>
<filter id="filter1_d" x="0" y="0" width="144" height="61" filterUnits="userSpaceOnUse" color-interpolation-filters="sRGB">
<feFlood flood-opacity="0" result="BackgroundImageFix"/>
<feColorMatrix in="SourceAlpha" type="matrix" values="0 0 0 0 0 0 0 0 0 0 0 0 0 0 0 0 0 0 127 0"/>
<feOffset dy="4"/>
<feGaussianBlur stdDeviation="5.5"/>
<feColorMatrix type="matrix" values="0 0 0 0 0.98 0 0 0 0 1 0 0 0 0 0 0 0 0 0.4 0"/>
<feBlend mode="normal" in2="BackgroundImageFix" result="effect1_dropShadow"/>
<feBlend mode="normal" in="SourceGraphic" in2="effect1_dropShadow" result="shape"/>
</filter>
<filter id="filter2_d" x="7" y="7" width="130" height="47" filterUnits="userSpaceOnUse" color-interpolation-filters="sRGB">
<feFlood flood-opacity="0" result="BackgroundImageFix"/>
<feColorMatrix in="SourceAlpha" type="matrix" values="0 0 0 0 0 0 0 0 0 0 0 0 0 0 0 0 0 0 127 0"/>
<feOffset dy="4"/>
<feGaussianBlur stdDeviation="2"/>
<feColorMatrix type="matrix" values="0 0 0 0 0 0 0 0 0 0 0 0 0 0 0 0 0 0 0.25 0"/>
<feBlend mode="normal" in2="BackgroundImageFix" result="effect1_dropShadow"/>
<feBlend mode="normal" in="SourceGraphic" in2="effect1_dropShadow" result="shape"/>
</filter>
<filter id="filter3_i" x="50.9596" y="18.96" width="41.6111" height="21.28" filterUnits="userSpaceOnUse" color-interpolation-filters="sRGB">
<feFlood flood-opacity="0" result="BackgroundImageFix"/>
<feBlend mode="normal" in="SourceGraphic" in2="BackgroundImageFix" result="shape"/>
<feColorMatrix in="SourceAlpha" type="matrix" values="0 0 0 0 0 0 0 0 0 0 0 0 0 0 0 0 0 0 127 0" result="hardAlpha"/>
<feOffset dy="4"/>
<feGaussianBlur stdDeviation="2"/>
<feComposite in2="hardAlpha" operator="arithmetic" k2="-1" k3="1"/>
<feColorMatrix type="matrix" values="0 0 0 0 0 0 0 0 0 0 0 0 0 0 0 0 0 0 0.25 0"/>
<feBlend mode="normal" in2="shape" result="effect1_innerShadow"/>
</filter>
</defs>
</svg>
