<svg width="117" height="19" viewBox="0 0 117 19" fill="none" xmlns="http://www.w3.org/2000/svg">
<g filter="url(#filter0_i)">
<path d="M7.56566 1.2C9.02166 1.2 10.2857 1.44 11.3577 1.92C12.4457 2.4 13.2777 3.088 13.8537 3.984C14.4297 4.88 14.7177 5.944 14.7177 7.176C14.7177 8.392 14.4297 9.456 13.8537 10.368C13.2777 11.264 12.4457 11.952 11.3577 12.432C10.2857 12.912 9.02166 13.152 7.56566 13.152H3.77366V18H0.653656V1.2H7.56566ZM7.42166 10.512C8.78166 10.512 9.81366 10.224 10.5177 9.648C11.2217 9.072 11.5737 8.248 11.5737 7.176C11.5737 6.104 11.2217 5.28 10.5177 4.704C9.81366 4.128 8.78166 3.84 7.42166 3.84H3.77366V10.512H7.42166ZM31.1957 18.24C29.4837 18.24 27.9397 17.872 26.5637 17.136C25.1877 16.384 24.1077 15.352 23.3237 14.04C22.5397 12.712 22.1477 11.232 22.1477 9.6C22.1477 7.968 22.5397 6.496 23.3237 5.184C24.1077 3.856 25.1877 2.824 26.5637 2.088C27.9397 1.336 29.4837 0.959999 31.1957 0.959999C32.9077 0.959999 34.4517 1.336 35.8277 2.088C37.2037 2.824 38.2837 3.848 39.0677 5.16C39.8517 6.472 40.2437 7.952 40.2437 9.6C40.2437 11.248 39.8517 12.728 39.0677 14.04C38.2837 15.352 37.2037 16.384 35.8277 17.136C34.4517 17.872 32.9077 18.24 31.1957 18.24ZM31.1957 15.504C32.3157 15.504 33.3237 15.256 34.2197 14.76C35.1157 14.248 35.8197 13.544 36.3317 12.648C36.8437 11.736 37.0997 10.72 37.0997 9.6C37.0997 8.48 36.8437 7.472 36.3317 6.576C35.8197 5.664 35.1157 4.96 34.2197 4.464C33.3237 3.952 32.3157 3.696 31.1957 3.696C30.0757 3.696 29.0677 3.952 28.1717 4.464C27.2757 4.96 26.5717 5.664 26.0597 6.576C25.5477 7.472 25.2917 8.48 25.2917 9.6C25.2917 10.72 25.5477 11.736 26.0597 12.648C26.5717 13.544 27.2757 14.248 28.1717 14.76C29.0677 15.256 30.0757 15.504 31.1957 15.504ZM72.8438 1.2L67.2758 18H63.9638L59.8118 5.568L55.5878 18H52.2518L46.6838 1.2H49.9238L54.0998 13.968L58.4438 1.2H61.3238L65.5718 14.04L69.8678 1.2H72.8438ZM93.2655 15.384V18H80.6655V1.2H92.9295V3.816H83.7855V8.184H91.8975V10.752H83.7855V15.384H93.2655ZM113.016 18L109.584 13.08C109.44 13.096 109.224 13.104 108.936 13.104H105.144V18H102.024V1.2H108.936C110.392 1.2 111.656 1.44 112.728 1.92C113.816 2.4 114.648 3.088 115.224 3.984C115.8 4.88 116.088 5.944 116.088 7.176C116.088 8.44 115.776 9.528 115.152 10.44C114.544 11.352 113.664 12.032 112.512 12.48L116.376 18H113.016ZM112.944 7.176C112.944 6.104 112.592 5.28 111.888 4.704C111.184 4.128 110.152 3.84 108.792 3.84H105.144V10.536H108.792C110.152 10.536 111.184 10.248 111.888 9.672C112.592 9.08 112.944 8.248 112.944 7.176Z" fill="#EAEAEA"/>
</g>
<defs>
<filter id="filter0_i" x="0.653687" y="0.960022" width="115.722" height="21.28" filterUnits="userSpaceOnUse" color-interpolation-filters="sRGB">
<feFlood flood-opacity="0" result="BackgroundImageFix"/>
<feBlend mode="normal" in="SourceGraphic" in2="BackgroundImageFix" result="shape"/>
<feColorMatrix in="SourceAlpha" type="matrix" values="0 0 0 0 0 0 0 0 0 0 0 0 0 0 0 0 0 0 127 0" result="hardAlpha"/>
<feOffset dy="4"/>
<feGaussianBlur stdDeviation="2"/>
<feComposite in2="hardAlpha" operator="arithmetic" k2="-1" k3="1"/>
<feColorMatrix type="matrix" values="0 0 0 0 0 0 0 0 0 0 0 0 0 0 0 0 0 0 0.82 0"/>
<feBlend mode="normal" in2="shape" result="effect1_innerShadow"/>
</filter>
</defs>
</svg>
