<svg width="330" height="16" viewBox="0 0 330 16" fill="none" xmlns="http://www.w3.org/2000/svg">
<path d="M0.644531 14.6289L4.62891 1.16406C4.78516 0.671875 5.11328 0.425781 5.61328 0.425781C6.09766 0.425781 6.40234 0.632813 6.52734 1.04688L10.4531 14.7227C10.4844 14.8242 10.5 14.9219 10.5 15.0156C10.5 15.2891 10.4062 15.5234 10.2188 15.7188C10.0312 15.9062 9.81641 16 9.57422 16C9.05859 16 8.73047 15.7617 8.58984 15.2852L7.79297 12.6133H3.30469L2.4375 15.4727C2.41406 15.5977 2.31641 15.7188 2.14453 15.8359C1.97266 15.9453 1.78516 16 1.58203 16C1.29297 16 1.05469 15.9023 0.867188 15.707C0.679688 15.5117 0.585938 15.2734 0.585938 14.9922C0.585938 14.875 0.605469 14.7539 0.644531 14.6289ZM5.58984 4.98438L3.90234 10.6211H7.21875L5.58984 4.98438ZM39.5156 11.1719V12.0391C39.5156 13.125 39.1289 14.0586 38.3555 14.8398C37.5898 15.6133 36.6641 16 35.5781 16H29.5547V0.425781H35.5781C36.6641 0.425781 37.5898 0.8125 38.3555 1.58594C39.1289 2.35938 39.5156 3.29297 39.5156 4.38672V5.21875C39.5156 6.38281 39.0664 7.375 38.168 8.19531C39.0664 9.03125 39.5156 10.0234 39.5156 11.1719ZM37.5 5.19531V4.38672C37.5 3.83984 37.3047 3.37109 36.9141 2.98047C36.5312 2.58984 36.0703 2.39453 35.5312 2.39453H31.5234V7.16406H35.5312C36.0625 7.16406 36.5234 6.97266 36.9141 6.58984C37.3047 6.19922 37.5 5.73438 37.5 5.19531ZM37.5 12.0391V11.2188C37.5 10.6719 37.3047 10.2031 36.9141 9.8125C36.5312 9.42188 36.0703 9.22656 35.5312 9.22656H31.5469V14.0078H35.5312C36.0625 14.0078 36.5234 13.8164 36.9141 13.4336C37.3047 13.043 37.5 12.5781 37.5 12.0391ZM44.1094 16V1.41016C44.1094 1.14453 44.207 0.914063 44.4023 0.71875C44.5977 0.523437 44.8281 0.425781 45.0938 0.425781C45.3594 0.425781 45.5898 0.523437 45.7852 0.71875C45.9805 0.914063 46.0781 1.14453 46.0781 1.41016V14.0312H53.0391C53.3125 14.0312 53.5469 14.1289 53.7422 14.3242C53.9453 14.5117 54.0469 14.7422 54.0469 15.0156C54.0469 15.2891 53.9453 15.5234 53.7422 15.7188C53.5469 15.9062 53.3125 16 53.0391 16H44.1094ZM65.9062 1.86719L68.0742 6.28516C68.3789 6.88672 68.5312 7.53906 68.5312 8.24219C68.5312 8.92969 68.3789 9.57812 68.0742 10.1875L65.9062 14.5586C65.4453 15.5195 64.6641 16 63.5625 16C63.0391 16 62.5664 15.8633 62.1445 15.5898C61.7305 15.3164 61.418 14.9727 61.207 14.5586L59.0273 10.1875C58.7383 9.61719 58.5938 8.96875 58.5938 8.24219C58.5938 7.51562 58.7383 6.86328 59.0273 6.28516L61.207 1.86719C61.6992 0.90625 62.4844 0.425781 63.5625 0.425781C64.6562 0.425781 65.4375 0.90625 65.9062 1.86719ZM62.9062 2.85156L60.8672 7C60.6797 7.41406 60.5859 7.82031 60.5859 8.21875C60.5859 8.64844 60.6797 9.05859 60.8672 9.44922L62.9648 13.6445C63.0742 13.9023 63.2734 14.0312 63.5625 14.0312C63.8125 14.0312 64.0039 13.9023 64.1367 13.6445L66.2461 9.44922C66.4414 9.03516 66.5391 8.625 66.5391 8.21875C66.5391 7.78906 66.4414 7.38281 66.2461 7L64.1836 2.85156C64.0508 2.54688 63.8438 2.39453 63.5625 2.39453C63.2812 2.39453 63.0625 2.54688 62.9062 2.85156ZM78.5273 14.0312H82.0781C82.3516 14.0312 82.5859 14.1289 82.7812 14.3242C82.9844 14.5117 83.0859 14.7422 83.0859 15.0156C83.0859 15.2891 82.9844 15.5234 82.7812 15.7188C82.5859 15.9062 82.3516 16 82.0781 16H78.3984C77.9297 16 77.4453 15.8516 76.9453 15.5547C76.4453 15.2578 76.0977 14.9258 75.9023 14.5586L73.6289 10.1641C73.3242 9.53125 73.1719 8.88281 73.1719 8.21875C73.1719 7.48438 73.3164 6.84766 73.6055 6.30859L75.9023 1.96094C76.1211 1.55469 76.4609 1.19922 76.9219 0.894531C77.3828 0.582031 77.8281 0.425781 78.2578 0.425781H82.1484C82.4219 0.425781 82.6523 0.523437 82.8398 0.71875C83.0352 0.914063 83.1328 1.14453 83.1328 1.41016C83.1328 1.68359 83.0352 1.92188 82.8398 2.125C82.6523 2.32031 82.4219 2.41797 82.1484 2.41797H78.3984C78.0859 2.41797 77.832 2.60156 77.6367 2.96875L75.457 7.04688C75.2852 7.36719 75.1992 7.74609 75.1992 8.18359C75.1992 8.64453 75.293 9.05078 75.4805 9.40234L77.5664 13.4102C77.7617 13.8242 78.082 14.0312 78.5273 14.0312ZM87.6094 15.0156V1.43359C87.6094 1.15234 87.7031 0.914063 87.8906 0.71875C88.0859 0.523437 88.3203 0.425781 88.5938 0.425781C88.8672 0.425781 89.0977 0.523437 89.2852 0.71875C89.4805 0.90625 89.5781 1.13672 89.5781 1.41016V6.0625L95.8828 0.683594C96.1016 0.503906 96.3477 0.414062 96.6211 0.414062C96.8945 0.414062 97.125 0.515625 97.3125 0.71875C97.5 0.921875 97.5938 1.15625 97.5938 1.42188C97.5938 1.69531 97.4883 1.92188 97.2773 2.10156L90.1289 8.17188L97.2773 14.3477C97.4727 14.5117 97.5703 14.7227 97.5703 14.9805C97.5703 15.2383 97.4727 15.4727 97.2773 15.6836C97.0898 15.8945 96.8555 16 96.5742 16C96.3086 16 96.0703 15.9102 95.8594 15.7305L89.5781 10.3164V15.0156C89.5781 15.2891 89.4805 15.5234 89.2852 15.7188C89.0977 15.9062 88.8672 16 88.5938 16C88.3281 16 88.0977 15.9062 87.9023 15.7188C87.707 15.5234 87.6094 15.2891 87.6094 15.0156ZM107.543 14.0312H111.094C111.367 14.0312 111.602 14.1289 111.797 14.3242C112 14.5117 112.102 14.7422 112.102 15.0156C112.102 15.2891 112 15.5234 111.797 15.7188C111.602 15.9062 111.367 16 111.094 16H107.414C106.945 16 106.461 15.8516 105.961 15.5547C105.461 15.2578 105.113 14.9258 104.918 14.5586L102.645 10.1641C102.34 9.53125 102.188 8.88281 102.188 8.21875C102.188 7.48438 102.332 6.84766 102.621 6.30859L104.918 1.96094C105.137 1.55469 105.477 1.19922 105.938 0.894531C106.398 0.582031 106.844 0.425781 107.273 0.425781H111.164C111.438 0.425781 111.668 0.523437 111.855 0.71875C112.051 0.914063 112.148 1.14453 112.148 1.41016C112.148 1.68359 112.051 1.92188 111.855 2.125C111.668 2.32031 111.438 2.41797 111.164 2.41797H107.414C107.102 2.41797 106.848 2.60156 106.652 2.96875L104.473 7.04688C104.301 7.36719 104.215 7.74609 104.215 8.18359C104.215 8.64453 104.309 9.05078 104.496 9.40234L106.582 13.4102C106.777 13.8242 107.098 14.0312 107.543 14.0312ZM116.602 15.0156V1.41016C116.602 1.14453 116.695 0.914063 116.883 0.71875C117.078 0.523437 117.312 0.425781 117.586 0.425781C117.852 0.425781 118.082 0.523437 118.277 0.71875C118.473 0.914063 118.57 1.14453 118.57 1.41016V7.21094H124.57V1.41016C124.57 1.14453 124.664 0.914063 124.852 0.71875C125.047 0.523437 125.281 0.425781 125.555 0.425781C125.828 0.425781 126.059 0.523437 126.246 0.71875C126.441 0.914063 126.539 1.15234 126.539 1.43359V15.0156C126.539 15.2812 126.438 15.5117 126.234 15.707C126.039 15.9023 125.812 16 125.555 16C125.273 16 125.039 15.9062 124.852 15.7188C124.664 15.5234 124.57 15.2891 124.57 15.0156V9.17969H118.594V15.0156C118.594 15.2812 118.492 15.5117 118.289 15.707C118.094 15.9023 117.859 16 117.586 16C117.32 16 117.09 15.9062 116.895 15.7188C116.699 15.5234 116.602 15.2891 116.602 15.0156ZM131.215 14.6289L135.199 1.16406C135.355 0.671875 135.684 0.425781 136.184 0.425781C136.668 0.425781 136.973 0.632813 137.098 1.04688L141.023 14.7227C141.055 14.8242 141.07 14.9219 141.07 15.0156C141.07 15.2891 140.977 15.5234 140.789 15.7188C140.602 15.9062 140.387 16 140.145 16C139.629 16 139.301 15.7617 139.16 15.2852L138.363 12.6133H133.875L133.008 15.4727C132.984 15.5977 132.887 15.7188 132.715 15.8359C132.543 15.9453 132.355 16 132.152 16C131.863 16 131.625 15.9023 131.438 15.707C131.25 15.5117 131.156 15.2734 131.156 14.9922C131.156 14.875 131.176 14.7539 131.215 14.6289ZM136.16 4.98438L134.473 10.6211H137.789L136.16 4.98438ZM146.625 0.425781H154.594C154.852 0.425781 155.078 0.523437 155.273 0.71875C155.477 0.914063 155.578 1.14453 155.578 1.41016C155.578 1.68359 155.48 1.92188 155.285 2.125C155.09 2.32031 154.859 2.41797 154.594 2.41797H151.617V14.0312H154.594C154.867 14.0312 155.098 14.1289 155.285 14.3242C155.48 14.5117 155.578 14.7422 155.578 15.0156C155.578 15.2891 155.48 15.5234 155.285 15.7188C155.09 15.9062 154.859 16 154.594 16H146.625C146.352 16 146.117 15.9062 145.922 15.7188C145.734 15.5234 145.641 15.2891 145.641 15.0156C145.641 14.7422 145.734 14.5117 145.922 14.3242C146.117 14.1289 146.352 14.0312 146.625 14.0312H149.648V2.41797H146.625C146.352 2.41797 146.117 2.32031 145.922 2.125C145.734 1.92969 145.641 1.69922 145.641 1.43359C145.641 1.15234 145.734 0.914063 145.922 0.71875C146.117 0.523437 146.352 0.425781 146.625 0.425781ZM170.086 1.43359V16H167.438L162.141 3.90625V15.0156C162.141 15.2891 162.043 15.5234 161.848 15.7188C161.66 15.9062 161.43 16 161.156 16C160.883 16 160.648 15.9062 160.453 15.7188C160.266 15.5234 160.172 15.2891 160.172 15.0156V0.425781H162.785L168.094 12.4961V1.43359C168.094 1.16016 168.191 0.925781 168.387 0.730469C168.59 0.527344 168.828 0.425781 169.102 0.425781C169.375 0.425781 169.605 0.523437 169.793 0.71875C169.988 0.914063 170.086 1.15234 170.086 1.43359ZM190.148 0.425781H198.117C198.375 0.425781 198.602 0.523437 198.797 0.71875C199 0.914063 199.102 1.14453 199.102 1.41016C199.102 1.68359 199.004 1.92188 198.809 2.125C198.613 2.32031 198.383 2.41797 198.117 2.41797H195.141V14.0312H198.117C198.391 14.0312 198.621 14.1289 198.809 14.3242C199.004 14.5117 199.102 14.7422 199.102 15.0156C199.102 15.2891 199.004 15.5234 198.809 15.7188C198.613 15.9062 198.383 16 198.117 16H190.148C189.875 16 189.641 15.9062 189.445 15.7188C189.258 15.5234 189.164 15.2891 189.164 15.0156C189.164 14.7422 189.258 14.5117 189.445 14.3242C189.641 14.1289 189.875 14.0312 190.148 14.0312H193.172V2.41797H190.148C189.875 2.41797 189.641 2.32031 189.445 2.125C189.258 1.92969 189.164 1.69922 189.164 1.43359C189.164 1.15234 189.258 0.914063 189.445 0.71875C189.641 0.523437 189.875 0.425781 190.148 0.425781ZM213.609 1.43359V16H210.961L205.664 3.90625V15.0156C205.664 15.2891 205.566 15.5234 205.371 15.7188C205.184 15.9062 204.953 16 204.68 16C204.406 16 204.172 15.9062 203.977 15.7188C203.789 15.5234 203.695 15.2891 203.695 15.0156V0.425781H206.309L211.617 12.4961V1.43359C211.617 1.16016 211.715 0.925781 211.91 0.730469C212.113 0.527344 212.352 0.425781 212.625 0.425781C212.898 0.425781 213.129 0.523437 213.316 0.71875C213.512 0.914063 213.609 1.15234 213.609 1.43359ZM220.43 0.425781H225.551C226.176 0.425781 226.766 0.691406 227.32 1.22266C227.883 1.74609 228.164 2.38281 228.164 3.13281C228.164 3.41406 228.062 3.65234 227.859 3.84766C227.664 4.04297 227.445 4.14062 227.203 4.14062C226.867 4.14062 226.637 4.06641 226.512 3.91797C226.387 3.76172 226.266 3.47656 226.148 3.0625C226.039 2.64844 225.789 2.44141 225.398 2.44141H220.535C220.301 2.44141 220.184 2.51562 220.184 2.66406C220.184 2.75781 220.234 2.86719 220.336 2.99219L227.637 12.332C227.988 12.7852 228.164 13.2695 228.164 13.7852C228.164 14.3711 227.949 14.8867 227.52 15.332C227.098 15.7773 226.625 16 226.102 16H220.793C220.09 16 219.477 15.7344 218.953 15.2031C218.438 14.6641 218.18 14.0742 218.18 13.4336C218.18 12.6992 218.523 12.332 219.211 12.332C219.477 12.332 219.703 12.4297 219.891 12.625C220.078 12.8125 220.172 13.0352 220.172 13.293C220.172 13.5039 220.242 13.6797 220.383 13.8203C220.531 13.9609 220.715 14.0312 220.934 14.0312H225.832C226.043 14.0312 226.148 13.9492 226.148 13.7852C226.148 13.707 226.098 13.6055 225.996 13.4805L218.707 4.14062C218.363 3.69531 218.191 3.21094 218.191 2.6875C218.191 2.07812 218.41 1.55078 218.848 1.10547C219.285 0.652344 219.812 0.425781 220.43 0.425781ZM232.688 3.10938V0.449219H242.625V3.13281C242.625 3.40625 242.527 3.64062 242.332 3.83594C242.137 4.02344 241.906 4.11719 241.641 4.11719C241.367 4.11719 241.129 4.01953 240.926 3.82422C240.73 3.62891 240.633 3.39844 240.633 3.13281V2.41797H238.641V15.0156C238.641 15.2891 238.543 15.5234 238.348 15.7188C238.152 15.9062 237.922 16 237.656 16C237.375 16 237.137 15.9062 236.941 15.7188C236.746 15.5234 236.648 15.2891 236.648 15.0156V2.41797H234.656V3.10938C234.656 3.38281 234.559 3.61719 234.363 3.8125C234.176 4 233.945 4.09375 233.672 4.09375C233.398 4.09375 233.164 4 232.969 3.8125C232.781 3.61719 232.688 3.38281 232.688 3.10938ZM247.242 15.0156V0.425781H254.203C255.008 0.425781 255.699 0.71875 256.277 1.30469C256.863 1.89062 257.156 2.58984 257.156 3.40234V4.52734C257.156 5.34766 256.867 6.05078 256.289 6.63672C255.711 7.21484 255.016 7.50391 254.203 7.50391H252.949L256.98 14.418C257.105 14.6211 257.168 14.8242 257.168 15.0273C257.168 15.293 257.066 15.5234 256.863 15.7188C256.66 15.9062 256.43 16 256.172 16C255.781 16 255.484 15.8242 255.281 15.4727L250.652 7.50391H249.234V15.0156C249.234 15.2891 249.133 15.5234 248.93 15.7188C248.734 15.9062 248.5 16 248.227 16C247.953 16 247.719 15.9062 247.523 15.7188C247.336 15.5234 247.242 15.2891 247.242 15.0156ZM249.211 5.53516H254.203C254.477 5.53516 254.707 5.44141 254.895 5.25391C255.09 5.05859 255.188 4.82422 255.188 4.55078V3.40234C255.188 3.12891 255.09 2.89844 254.895 2.71094C254.707 2.51562 254.477 2.41797 254.203 2.41797H249.211V5.53516ZM261.703 13.0469V1.43359C261.703 1.16016 261.801 0.925781 261.996 0.730469C262.191 0.527344 262.422 0.425781 262.688 0.425781C262.953 0.425781 263.184 0.523437 263.379 0.71875C263.574 0.914063 263.672 1.14453 263.672 1.41016V13.0469C263.672 13.3047 263.77 13.5312 263.965 13.7266C264.16 13.9141 264.391 14.0078 264.656 14.0078H268.688C268.961 14.0078 269.191 13.9141 269.379 13.7266C269.574 13.5391 269.672 13.3125 269.672 13.0469V1.43359C269.672 1.15234 269.766 0.914063 269.953 0.71875C270.148 0.523437 270.383 0.425781 270.656 0.425781C270.93 0.425781 271.16 0.523437 271.348 0.71875C271.543 0.914063 271.641 1.15234 271.641 1.43359V13.0234C271.641 13.8359 271.348 14.5352 270.762 15.1211C270.184 15.707 269.492 16 268.688 16H264.656C263.844 16 263.148 15.7109 262.57 15.1328C261.992 14.5547 261.703 13.8594 261.703 13.0469ZM280.195 6.54297V6.03906L278.156 3.13281V15.0156C278.156 15.2891 278.059 15.5234 277.863 15.7188C277.676 15.9062 277.445 16 277.172 16C276.898 16 276.664 15.9023 276.469 15.707C276.281 15.5117 276.188 15.2812 276.188 15.0156V0.425781H278.73L281.156 3.95312L283.652 0.425781H286.148V15.0156C286.148 15.2891 286.047 15.5234 285.844 15.7188C285.648 15.9062 285.414 16 285.141 16C284.875 16 284.645 15.9023 284.449 15.707C284.254 15.5117 284.156 15.2812 284.156 15.0156V3.17969L282.164 5.99219V6.54297C282.164 6.80859 282.066 7.03906 281.871 7.23438C281.676 7.42969 281.445 7.52734 281.18 7.52734C280.906 7.52734 280.672 7.42969 280.477 7.23438C280.289 7.03906 280.195 6.80859 280.195 6.54297ZM299.672 2.41797H292.711V7.21094H295.711C295.977 7.21094 296.207 7.30859 296.402 7.50391C296.598 7.69922 296.695 7.92969 296.695 8.19531C296.695 8.47656 296.598 8.71484 296.402 8.91016C296.215 9.10547 295.984 9.20312 295.711 9.20312H292.711V14.0312H299.695C299.961 14.0312 300.191 14.1289 300.387 14.3242C300.582 14.5117 300.68 14.7422 300.68 15.0156C300.68 15.2891 300.578 15.5234 300.375 15.7188C300.18 15.9062 299.945 16 299.672 16H290.742V0.425781H299.672C299.945 0.425781 300.18 0.527344 300.375 0.730469C300.578 0.925781 300.68 1.16016 300.68 1.43359C300.68 1.69922 300.578 1.92969 300.375 2.125C300.18 2.32031 299.945 2.41797 299.672 2.41797ZM315.164 1.43359V16H312.516L307.219 3.90625V15.0156C307.219 15.2891 307.121 15.5234 306.926 15.7188C306.738 15.9062 306.508 16 306.234 16C305.961 16 305.727 15.9062 305.531 15.7188C305.344 15.5234 305.25 15.2891 305.25 15.0156V0.425781H307.863L313.172 12.4961V1.43359C313.172 1.16016 313.27 0.925781 313.465 0.730469C313.668 0.527344 313.906 0.425781 314.18 0.425781C314.453 0.425781 314.684 0.523437 314.871 0.71875C315.066 0.914063 315.164 1.15234 315.164 1.43359ZM319.734 3.10938V0.449219H329.672V3.13281C329.672 3.40625 329.574 3.64062 329.379 3.83594C329.184 4.02344 328.953 4.11719 328.688 4.11719C328.414 4.11719 328.176 4.01953 327.973 3.82422C327.777 3.62891 327.68 3.39844 327.68 3.13281V2.41797H325.688V15.0156C325.688 15.2891 325.59 15.5234 325.395 15.7188C325.199 15.9062 324.969 16 324.703 16C324.422 16 324.184 15.9062 323.988 15.7188C323.793 15.5234 323.695 15.2891 323.695 15.0156V2.41797H321.703V3.10938C321.703 3.38281 321.605 3.61719 321.41 3.8125C321.223 4 320.992 4.09375 320.719 4.09375C320.445 4.09375 320.211 4 320.016 3.8125C319.828 3.61719 319.734 3.38281 319.734 3.10938Z" fill="white"/>
</svg>
